<svg width="50" height="50" 
    xmlns="http://www.w3.org/2000/svg">
    <g stroke="null" id="svg_1">
        <path stroke="null" d="m45.940386,6.555316c0.267615,-0.129997 0.495088,-0.129997 0.682418,0c0.187199,0.129997 0.334388,0.333119 0.441564,0.609363c0.107046,0.276245 0.18733,0.601238 0.240854,0.974981c0.053566,0.373743 0.080285,0.739361 0.080285,1.096854l0,17.695988c0,1.137239 -0.049063,1.941758 -0.147188,2.412999c-0.097994,0.471241 -0.298837,0.901858 -0.602133,1.29193c-0.356819,0.454912 -0.798385,0.958652 -1.324693,1.511141c-0.526309,0.552728 -1.110601,1.056548 -1.752877,1.51146c-0.642276,0.455071 -1.320233,0.820689 -2.034004,1.096854c-0.713509,0.276324 -1.431608,0.373822 -2.1543,0.292494c-0.722516,-0.081248 -1.4362,-0.373504 -2.140919,-0.877483s-1.360375,-1.3081 -1.966969,-2.412999c-0.73148,-1.332634 -1.480802,-2.266911 -2.247965,-2.803151c-0.767163,-0.536001 -1.516484,-0.82053 -2.247965,-0.853029s-1.42728,0.121793 -2.087396,0.463116c-0.660117,0.341164 -1.248869,0.723111 -1.766258,1.145523l0,17.11084c0,0.845063 -0.165029,1.560129 -0.495088,2.145277c-0.330059,0.584989 -0.72702,0.877483 -1.190886,0.877483s-0.856367,-0.292494 -1.177506,-0.877483c-0.321094,-0.585387 -0.481663,-1.300134 -0.481663,-2.145357l0,-17.744658l0,-9.701143l0,-10.139804c0,-0.227496 0.196251,-0.625613 0.588753,-1.194352s0.90989,-1.161853 1.552166,-1.779341s1.373756,-1.178102 2.194442,-1.681843s1.663672,-0.812484 2.528961,-0.926232s1.717195,0.032499 2.555722,0.438742c0.838527,0.406242 1.596769,1.226851 2.274727,2.461828s1.387137,2.104334 2.127538,2.608075c0.740533,0.50374 1.476342,0.763735 2.207823,0.779985s1.44066,-0.129997 2.127538,-0.438742s1.311182,-0.674362 1.873304,-1.096854c0.561991,-0.422492 1.048158,-0.812484 1.458501,-1.169977c0.41043,-0.357493 0.704807,-0.584989 0.883217,-0.682487l-0.000002,0.000002z" fill="#{color}" id="svg_3"/>
    </g>
</svg>