<svg width="40" height="40" xmlns="http://www.w3.org/2000/svg">
 <g>
  <title>Layer 1</title>
  <g id="svg_1">
   <path id="svg_2" fill="#99C99E" d="m20,24.5c-2.481,0 -4.5,-2.019 -4.5,-4.5s2.019,-4.5 4.5,-4.5s4.5,2.019 4.5,4.5s-2.019,4.5 -4.5,4.5z"/>
   <path id="svg_3" fill="#5E9C76" d="m20,16c2.206,0 4,1.794 4,4s-1.794,4 -4,4s-4,-1.794 -4,-4s1.794,-4 4,-4m0,-1c-2.761,0 -5,2.239 -5,5s2.239,5 5,5s5,-2.239 5,-5s-2.239,-5 -5,-5l0,0z"/>
  </g>
  <g id="svg_4">
   <path id="svg_5" fill="#C2E8FF" d="m20,35.5c-8.547,0 -15.5,-6.953 -15.5,-15.5s6.953,-15.5 15.5,-15.5s15.5,6.953 15.5,15.5s-6.953,15.5 -15.5,15.5zm0,-27c-6.341,0 -11.5,5.159 -11.5,11.5s5.159,11.5 11.5,11.5s11.5,-5.159 11.5,-11.5s-5.159,-11.5 -11.5,-11.5z"/>
   <path id="svg_6" fill="#7496C4" d="m20,5c8.271,0 15,6.729 15,15s-6.729,15 -15,15s-15,-6.729 -15,-15s6.729,-15 15,-15m0,27c6.617,0 12,-5.383 12,-12s-5.383,-12 -12,-12s-12,5.383 -12,12s5.383,12 12,12m0,-28c-8.837,0 -16,7.163 -16,16c0,8.837 7.163,16 16,16s16,-7.163 16,-16c0,-8.837 -7.163,-16 -16,-16l0,0zm0,27c-6.075,0 -11,-4.925 -11,-11c0,-6.075 4.925,-11 11,-11c6.075,0 11,4.925 11,11c0,6.075 -4.925,11 -11,11l0,0z"/>
  </g>
  <g id="svg_7">
   <rect id="svg_8" fill="#8BB7F0" height="7" width="1" y="1.5" x="19.5"/>
   <path id="svg_9" fill="#4E7AB5" d="m20,2l0,6l0,-6m1,-1l-2,0l0,8l2,0l0,-8l0,0z"/>
  </g>
  <g id="svg_10">
   <rect id="svg_11" fill="#8BB7F0" height="1" width="7" y="19.5" x="31.5"/>
   <polygon id="svg_12" fill="#4E7AB5" points="39,19 31,19 31,21 39,21 39,19  "/>
  </g>
  <g id="svg_13">
   <rect id="svg_14" fill="#8BB7F0" height="1" width="7" y="19.5" x="1.5"/>
   <polygon id="svg_15" fill="#4E7AB5" points="9,19 1,19 1,21 9,21 9,19  "/>
  </g>
  <g id="svg_16">
   <rect id="svg_17" fill="#8BB7F0" height="7" width="1" y="31.5" x="19.5"/>
   <path id="svg_18" fill="#4E7AB5" d="m20,32l0,6l0,-6m1,-1l-2,0l0,8l2,0l0,-8l0,0z"/>
  </g>
 </g>
</svg>