<svg width="28" height="32" xmlns="http://www.w3.org/2000/svg">
 <g>
  <path id="svg_1" fill-opacity="0.2" fill="#000" d="m19,29.06679c0,1.7 -2.7,3 -6,3c-3.3,0 -6,-1.3 -6,-3c0,-1.7 2.7,-3 6,-3c3.3,0 6,1.3 6,3z"/>
  <path id="svg_2" fill="#fff" d="m13,0.12888c-3.5,0 -6.7,1.3 -9.2,3.8c-2.4,4 -3.8,5.6 -3.8,9c0,3.5 1.4,6.7 3.8,9.1l9.2,9.1l9.2,-9.1c2.4,-2.4 3.7,-5.6 3.7,-9.1c0,-3.4 -1.3,-6.7 -3.8,-9c-2.4,-2.5 -5.6,-3.8 -9.1,-3.8z"/>
  <path id="svg_3" fill="{color}" d="m13,2.32888c-7,0 -10.7,5 -10.9,10.6c0,3.3 1,5.6 3.1,7.7l7.8,7.7l7.8,-7.7c2.1,-2.1 3,-4.3 3,-7.7c-0.2,-5.73 -3.8,-10.6 -10.8,-10.6z"/>
 </g>
</svg>