<svg width="50" height="50" 
    xmlns="http://www.w3.org/2000/svg">
    <g id="svg_5"/>
    <path stroke="null" d="m50.68453,14.343903c-0.28095,-0.204442 -0.61351,-0.306691 -0.997604,-0.306691c-0.191775,0 -0.594418,0.112875 -1.207464,0.338908c-0.61289,0.226033 -1.26311,0.478745 -1.949963,0.758418c-0.68631,0.279729 -1.499511,0.532385 -2.437046,0.758418c-0.938078,0.226033 -1.806072,0.338908 -2.603365,0.338908c-0.738929,0 -1.38884,-0.102249 -1.950584,-0.306578c-1.861253,-0.634803 -3.47819,-1.108235 -4.852361,-1.420239c-1.373706,-0.311947 -2.850787,-0.467836 -4.43148,-0.467836c-2.732974,0 -5.842437,0.645373 -9.328543,1.936345c-0.857053,0.312004 -1.44045,0.54335 -1.750659,0.693926c-0.458057,0.247568 -0.687162,0.543237 -0.687162,0.887572l0,11.973823c0,0.279673 0.140629,0.522041 0.421347,0.726144c0.280329,0.204611 0.612968,0.306804 0.997062,0.306804c0.236247,0 0.479633,-0.048327 0.731013,-0.145093c4.018048,-1.570815 7.44517,-2.356137 10.281445,-2.356137c1.078242,0 2.130717,0.118358 3.157038,0.354904c1.026708,0.236716 1.87988,0.495023 2.559282,0.77447c0.679946,0.279673 1.480962,0.53815 2.404217,0.774866c0.92372,0.236207 1.835798,0.354735 2.736701,0.354735c2.275073,0 5.000674,-0.623781 8.176416,-1.871966c0.399228,-0.150519 0.690501,-0.298269 0.875136,-0.443588c0.184791,-0.145206 0.277225,-0.352191 0.277225,-0.621464l0,-12.312845c0.000078,-0.279617 -0.140164,-0.521476 -0.420649,-0.725804l-0.000001,0z" id="svg_4" fill="{color}"/>
    <g transform="rotate(-10 19.869417190551722,28.926553726196286) " stroke="null" id="svg_2">
        <path stroke="null" d="m22.958723,8.220938c-0.853335,-0.708149 -1.883123,-1.06287 -3.088767,-1.06287c-1.206122,0 -2.235791,0.355019 -3.089245,1.06287c-0.852977,0.708746 -1.279883,1.563926 -1.279883,2.565442c0,1.360406 0.72781,2.399847 2.184265,3.117825l0,35.884026c0,0.245713 0.107833,0.458367 0.324454,0.637762c0.216024,0.179396 0.472096,0.269044 0.767858,0.269044l2.184265,0c0.295762,0 0.551715,-0.088953 0.767858,-0.269044c0.216263,-0.179396 0.324215,-0.392048 0.324215,-0.637762l0,-35.884026c1.456695,-0.718376 2.184265,-1.757518 2.184265,-3.117825c0,-1.001219 -0.426429,-1.8563 -1.279285,-2.565442l-0.000002,0l0.000002,0z" id="svg_3" fill="{color}"/>
    </g>
</svg>