<svg width="50" height="50" 
    xmlns="http://www.w3.org/2000/svg">
    <g >
        <path stroke="null" fill="{color}" id="svg_2" d="m44.718665,14.122358c-3.822601,2.375299 -6.734911,4.066871 -9.297231,9.41489c-2.28272,4.7655 -5.578498,6.41723 -9.297169,3.276036l0,17.122375l-1.859642,0l0,-42.366487c-0.000061,-0.867414 0.415781,-1.569148 0.929668,-1.569148c0.513825,0 0.929913,0.701734 0.929913,1.569148c2.064498,5.065918 5.652628,6.187906 9.297169,6.276696c5.578252,0.137636 9.297292,6.27649 9.297292,6.27649zm-16.735248,20.81556l0,3.192937c2.193567,0.757306 3.718978,2.363709 3.718978,4.236276c0,2.598827 -2.914578,4.707548 -6.508104,4.707548c-3.593649,0 -6.507982,-2.108721 -6.507982,-4.708066c0,-1.87205 1.525227,-3.478349 3.718733,-4.235759l0,-3.192937c-3.377327,0.986732 -5.578375,3.75124 -5.578375,7.428592c0,4.618654 3.441096,7.845845 8.367563,7.845845c4.926344,0 8.367624,-3.227294 8.367624,-7.845845c0.000123,-3.677352 -2.201109,-6.441859 -5.578436,-7.428592l-0.000001,0z"/>
    </g>

</svg>