<svg width="32" height="32" xmlns="http://www.w3.org/2000/svg">
 <g>
  <title>Layer 1</title>
  <path fill="{color}" stroke="null" id="svg_1" d="m31.535421,5.785133q0.169808,0.194786 0.169808,0.448007t-0.169808,0.448007l-2.394297,2.746477q-0.475463,0.5454 -1.154697,0.5454l-22.822238,0q-0.441502,0 -0.764137,-0.370093t-0.322636,-0.876535l0,-4.986512q0,-0.506443 0.322636,-0.876535t0.764137,-0.370093l9.780959,0l0,-1.246628q0,-0.506443 0.322636,-0.876535t0.764137,-0.370093l2.173546,0q0.441502,0 0.764137,0.370093t0.322636,0.876535l0,1.246628l8.694186,0q0.679233,0 1.154697,0.5454l2.394297,2.746477zm-18.98457,15.154321l4.347093,0l0,9.973024q0,0.506443 -0.322636,0.876535t-0.764137,0.370093l-2.173546,0q-0.441502,0 -0.764137,-0.370093t-0.322636,-0.876535l0,-9.973024zm14.128052,-8.726396q0.441502,0 0.764137,0.370093t0.322636,0.876535l0,4.986512q0,0.506443 -0.322636,0.876535t-0.764137,0.370093l-22.822238,0q-0.679233,0 -1.154697,-0.5454l-2.394297,-2.746477q-0.169808,-0.194786 -0.169808,-0.448007t0.169808,-0.448007l2.394297,-2.746477q0.475463,-0.5454 1.154697,-0.5454l8.694186,0l0,-3.739884l4.347093,0l0,3.739884l9.780959,0z"/>
 </g>
</svg>