<svg xmlns="http://www.w3.org/2000/svg" width="16" height="16" viewBox="0 0 16 16">
    <path fill="{color}" d="M8 12c-2.206 0-4-1.795-4-4 0-2.206 1.794-4 4-4s4 1.794 4 4c0 2.205-1.794 4-4 4M8 1.25a6.75 6.75 0 1 0 0 13.5 6.75 6.75 0 0 0 0-13.5"></path>
    <path fill="{color2}" d="M8 5a3 3 0 1 1 .001 6A3 3 0 0 1 8 5m0-1C5.794 4 4 5.794 4 8c0 2.205 1.794 4 4 4s4-1.795 4-4c0-2.206-1.794-4-4-4"></path>
    <path fill="{color2}" d="M8 1.25a6.75 6.75 0 1 1 0 13.5 6.75 6.75 0 0 1 0-13.5M8 0C3.59 0 0 3.59 0 8c0 4.411 3.59 8 8 8s8-3.589 8-8c0-4.41-3.59-8-8-8"></path>
</svg>