<svg width="200" height="200" 
    xmlns="http://www.w3.org/2000/svg" 
    xmlns:xlink="http://www.w3.org/1999/xlink">
    <defs>
        <g transform="rotate(45 0,0) " id="a">
            <path id="svg_1" fill-opacity="0.7" d="m0,47a47,47 0 0 0 47,-47l15,0a62,62 0 0 1 -62,62l0,-15z"/>
            <path id="svg_2" fill-opacity="0.5" d="m0,67a67,67 0 0 0 67,-67l14,0a81,81 0 0 1 -81,81l0,-14z"/>
            <path id="svg_3" fill-opacity="0.3" d="m0,86a86,86 0 0 0 86,-86l14,0a100,100 0 0 1 -100,100l0,-14z"/>
        </g>
    </defs>

    <g>
        <g id="svg_4" fill="blue">
            <circle cx="101.116272" cy="99.116272" id="svg_5" r="42"/>
            <g id="svg_6">
                <use x="101.116272" y="99.116272" id="svg_7" xlink:href="#a"/>
            </g>
            <g id="svg_8" transform="rotate(120 101.11627197265626,99.11627197265625) ">
                <use x="101.116272" y="99.116272" id="svg_9" xlink:href="#a"/>
            </g>
            <g id="svg_10" transform="rotate(240 101.11627197265626,99.11627197265626) ">
                <use x="101.116272" y="99.116272" id="svg_11" xlink:href="#a"/>
            </g>
        </g>
    </g>
</svg>